<svg width="293" height="254" viewBox="0 0 293 254" fill="none" xmlns="http://www.w3.org/2000/svg">
<path d="M182.39 64.9759C183.773 59.8143 191.097 59.8143 192.48 64.9759C202.777 103.402 232.889 133.411 271.333 143.637C276.515 145.015 276.515 152.38 271.333 153.759C232.889 163.984 202.777 193.993 192.48 232.42C191.097 237.581 183.773 237.581 182.39 232.42C172.092 193.993 141.981 163.984 103.536 153.759C98.3543 152.38 98.3543 145.015 103.536 143.637C141.981 133.411 172.092 103.402 182.39 64.9759Z" fill="#6ABB8F" stroke="#F2F2F2"/>
<path d="M119.644 21.2347C121.021 16.0941 128.315 16.0941 129.693 21.2347C139.952 59.5183 169.952 89.4161 208.254 99.6036C213.415 100.976 213.415 108.311 208.254 109.684C169.952 119.872 139.952 149.769 129.693 188.053C128.315 193.194 121.021 193.194 119.644 188.053C109.385 149.769 79.3844 119.872 41.0823 109.684C35.9216 108.311 35.9216 100.976 41.0823 99.6036C79.3844 89.4161 109.385 59.5183 119.644 21.2347Z" stroke="#F2F2F2"/>
<path d="M206.095 17.3807C206.246 15.912 208.389 15.912 208.539 17.3807C209.272 24.535 214.939 30.1989 222.096 30.9146C223.564 31.0613 223.564 33.2006 222.096 33.3473C214.939 34.063 209.272 39.7269 208.539 46.8812C208.389 48.3499 206.246 48.3499 206.095 46.8812C205.362 39.7269 199.696 34.063 192.539 33.3473C191.071 33.2006 191.071 31.0613 192.539 30.9146C199.696 30.1989 205.362 24.535 206.095 17.3807Z" fill="#6ABB8F" stroke="#F2F2F2"/>
<path d="M19.639 62.9666C19.7069 62.3093 20.6675 62.3093 20.7354 62.9666C21.1934 67.4002 24.7083 70.913 29.1454 71.3532C29.8007 71.4182 29.8007 72.3734 29.1454 72.4385C24.7083 72.8786 21.1934 76.3915 20.7354 80.8251C20.6675 81.4824 19.7069 81.4824 19.639 80.8251C19.181 76.3915 15.666 72.8786 11.229 72.4385C10.5737 72.3734 10.5737 71.4182 11.229 71.3532C15.666 70.913 19.181 67.4002 19.639 62.9666Z" fill="#6ABB8F" stroke="#F2F2F2"/>
</svg>
